<svg xmlns="http://www.w3.org/2000/svg" xmlns:xlink="http://www.w3.org/1999/xlink" width="840" height="191.97"><rect width="840" height="191.97" rx="0" ry="0" class="a"></rect><svg height="151.97" viewBox="0 0 80 15.197" width="800" x="20" xmlns="http://www.w3.org/2000/svg" xmlns:xlink="http://www.w3.org/1999/xlink" y="20"><style>.a{fill:rgb(40,45,53)}.b{font-family:'Fira Code',Monaco,Consolas,Menlo,'Bitstream Vera Sans Mono','Powerline Symbols',monospace}.c{fill:rgb(102,194,205);white-space:pre}.d{fill:rgb(185,192,203);font-weight:bold;white-space:pre}.e{fill:rgb(185,192,203);white-space:pre}.f{fill:rgb(219,171,121);font-weight:bold;white-space:pre}.g{fill:rgb(168,204,140);white-space:pre}.h{fill:transparent}.j{animation-duration:8.46282900000006s;animation-iteration-count:infinite;animation-name:i;animation-timing-function:steps(1,end)}@keyframes i{0%{transform:translateX(-0px)}0.1%{transform:translateX(-80px)}1.4%{transform:translateX(-160px)}1.7%{transform:translateX(-240px)}1.9%{transform:translateX(-320px)}2%{transform:translateX(-400px)}2.3%{transform:translateX(-480px)}2.5%{transform:translateX(-560px)}2.5%{transform:translateX(-640px)}2.7%{transform:translateX(-720px)}4.6%{transform:translateX(-800px)}5.5%{transform:translateX(-880px)}6.8%{transform:translateX(-960px)}7.1%{transform:translateX(-1040px)}7.8%{transform:translateX(-1120px)}8.2%{transform:translateX(-1200px)}9.3%{transform:translateX(-1280px)}9.5%{transform:translateX(-1360px)}10.4%{transform:translateX(-1440px)}10.8%{transform:translateX(-1520px)}11.9%{transform:translateX(-1600px)}12.2%{transform:translateX(-1680px)}12.7%{transform:translateX(-1760px)}13%{transform:translateX(-1840px)}13.9%{transform:translateX(-1920px)}14.1%{transform:translateX(-2000px)}14.8%{transform:translateX(-2080px)}15%{transform:translateX(-2160px)}15.3%{transform:translateX(-2240px)}15.5%{transform:translateX(-2320px)}16.1%{transform:translateX(-2400px)}16.5%{transform:translateX(-2480px)}17.5%{transform:translateX(-2560px)}17.7%{transform:translateX(-2640px)}18.3%{transform:translateX(-2720px)}18.6%{transform:translateX(-2800px)}19.5%{transform:translateX(-2880px)}19.8%{transform:translateX(-2960px)}21.6%{transform:translateX(-3040px)}21.9%{transform:translateX(-3120px)}23%{transform:translateX(-3200px)}23.3%{transform:translateX(-3280px)}23.8%{transform:translateX(-3360px)}24.1%{transform:translateX(-3440px)}25.1%{transform:translateX(-3520px)}29.1%{transform:translateX(-3600px)}29.1%{transform:translateX(-3680px)}29.1%{transform:translateX(-3760px)}29.1%{transform:translateX(-3840px)}100%{transform:translateX(-3920px)}}</style><g font-family="&#x27;Fira Code&#x27;,Monaco,Consolas,Menlo,&#x27;Bitstream Vera Sans Mono&#x27;,&#x27;Powerline Symbols&#x27;,monospace" font-size="1.67" class="b"><defs><symbol id="1"><text font-size="1.67" x="0" y="1.67" class="c">──</text><text font-size="1.67" x="3.006" y="1.67" class="d">tb_vigibase()</text><text font-size="1.67" x="17.034" y="1.67" class="c">───────────────────────────────────────────────────────────────</text></symbol><symbol id="2"><text font-size="1.67" x="0" y="1.67" class="c">ℹ</text><text font-size="1.67" x="2.004" y="1.67" class="e">Checking</text><text font-size="1.67" x="11.021999999999998" y="1.67" class="e">for</text><text font-size="1.67" x="15.029999999999998" y="1.67" class="e">existing</text><text font-size="1.67" x="24.048" y="1.67" class="e">tables.</text></symbol><symbol id="3"><text font-size="1.67" x="0" y="1.67" class="c">ℹ</text><text font-size="1.67" x="2.004" y="1.67" class="e">Creating</text><text font-size="1.67" x="11.021999999999998" y="1.67" class="e">vigibase</text><text font-size="1.67" x="20.04" y="1.67" class="e">tables.</text></symbol><symbol id="4"><text font-size="1.67" x="0" y="1.67" class="e">This</text><text font-size="1.67" x="5.01" y="1.67" class="e">process</text><text font-size="1.67" x="13.026" y="1.67" class="e">must</text><text font-size="1.67" x="18.035999999999998" y="1.67" class="e">only</text><text font-size="1.67" x="23.045999999999996" y="1.67" class="e">be</text><text font-size="1.67" x="26.052" y="1.67" class="e">done</text><text font-size="1.67" x="31.061999999999998" y="1.67" class="f">once</text><text font-size="1.67" x="36.071999999999996" y="1.67" class="e">per</text><text font-size="1.67" x="40.08" y="1.67" class="e">database</text><text font-size="1.67" x="49.098" y="1.67" class="e">version.</text></symbol><symbol id="5"><text font-size="1.67" x="0" y="1.67" class="e">It</text><text font-size="1.67" x="3.006" y="1.67" class="e">can</text><text font-size="1.67" x="7.013999999999999" y="1.67" class="e">take</text><text font-size="1.67" x="12.024" y="1.67" class="e">up</text><text font-size="1.67" x="15.029999999999998" y="1.67" class="e">to</text><text font-size="1.67" x="18.035999999999998" y="1.67" class="e">30minutes.</text></symbol><symbol id="6"><text font-size="1.67" x="0" y="1.67" class="g">■■■■■■■■■■■■■■■■■■■■■■■■■■■■■■■</text><text font-size="1.67" x="33.065999999999995" y="1.67" class="e">100%</text><text font-size="1.67" x="38.07599999999999" y="1.67" class="e">|</text><text font-size="1.67" x="40.08" y="1.67" class="e">2.2s</text><text font-size="1.67" x="45.089999999999996" y="1.67" class="e">|</text><text font-size="1.67" x="47.093999999999994" y="1.67" class="e">Done</text></symbol><symbol id="a"><rect height="7" width="80" x="0" y="0" class="h"></rect></symbol></defs><rect height="15.197" width="80" class="a"></rect><g class="j"><svg x="0" y="0" width="4000"><svg x="0"><use xlink:href="#a"></use></svg><svg x="80"><use xlink:href="#a"></use></svg><svg x="160"><use xlink:href="#a"></use></svg><svg x="240"><use xlink:href="#a"></use><use xlink:href="#1" y="2.171"></use></svg><svg x="320"><use xlink:href="#a"></use><use xlink:href="#1" y="2.171"></use><use xlink:href="#2" y="4.342"></use></svg><svg x="400"><use xlink:href="#a"></use><use xlink:href="#1" y="2.171"></use><use xlink:href="#2" y="4.342"></use><use xlink:href="#3" y="6.513"></use></svg><svg x="480"><use xlink:href="#a"></use><use xlink:href="#1" y="2.171"></use><use xlink:href="#2" y="4.342"></use><use xlink:href="#3" y="6.513"></use><use xlink:href="#4" y="8.684"></use></svg><svg x="560"><use xlink:href="#a"></use><use xlink:href="#1" y="2.171"></use><use xlink:href="#2" y="4.342"></use><use xlink:href="#3" y="6.513"></use><use xlink:href="#4" y="8.684"></use><use xlink:href="#5" y="10.855"></use></svg><svg x="640"><use xlink:href="#a"></use><use xlink:href="#1" y="2.171"></use><use xlink:href="#2" y="4.342"></use><use xlink:href="#3" y="6.513"></use><use xlink:href="#4" y="8.684"></use><use xlink:href="#5" y="10.855"></use></svg><svg x="720"><use xlink:href="#a"></use><use xlink:href="#1" y="2.171"></use><use xlink:href="#2" y="4.342"></use><use xlink:href="#3" y="6.513"></use><use xlink:href="#4" y="8.684"></use><use xlink:href="#5" y="10.855"></use><text font-size="1.67" x="0" y="14.696" class="g">■</text><text font-size="1.67" x="35.06999999999999" y="14.696" class="e">1%</text><text font-size="1.67" x="38.07599999999999" y="14.696" class="e">|</text><text font-size="1.67" x="40.08" y="14.696" class="e">2ms</text><text font-size="1.67" x="44.087999999999994" y="14.696" class="e">|</text><text font-size="1.67" x="46.09199999999999" y="14.696" class="e">Read</text><text font-size="1.67" x="51.102" y="14.696" class="e">SUSPECTEDDUPLICATES.txt</text></svg><svg x="800"><use xlink:href="#a"></use><use xlink:href="#1" y="2.171"></use><use xlink:href="#2" y="4.342"></use><use xlink:href="#3" y="6.513"></use><use xlink:href="#4" y="8.684"></use><use xlink:href="#5" y="10.855"></use><text font-size="1.67" x="0" y="14.696" class="g">■■</text><text font-size="1.67" x="35.06999999999999" y="14.696" class="e">2%</text><text font-size="1.67" x="38.07599999999999" y="14.696" class="e">|</text><text font-size="1.67" x="40.08" y="14.696" class="e">157ms</text><text font-size="1.67" x="46.09199999999999" y="14.696" class="e">|</text><text font-size="1.67" x="48.096" y="14.696" class="e">Split</text><text font-size="1.67" x="54.108" y="14.696" class="e">suspdup</text></svg><svg x="880"><use xlink:href="#a"></use><use xlink:href="#1" y="2.171"></use><use xlink:href="#2" y="4.342"></use><use xlink:href="#3" y="6.513"></use><use xlink:href="#4" y="8.684"></use><use xlink:href="#5" y="10.855"></use><text font-size="1.67" x="0" y="14.696" class="g">■■</text><text font-size="1.67" x="35.06999999999999" y="14.696" class="e">3%</text><text font-size="1.67" x="38.07599999999999" y="14.696" class="e">|</text><text font-size="1.67" x="40.08" y="14.696" class="e">236ms</text><text font-size="1.67" x="46.09199999999999" y="14.696" class="e">|</text><text font-size="1.67" x="48.096" y="14.696" class="e">Write</text><text font-size="1.67" x="54.108" y="14.696" class="e">suspdup.parquet</text></svg><svg x="960"><use xlink:href="#a"></use><use xlink:href="#1" y="2.171"></use><use xlink:href="#2" y="4.342"></use><use xlink:href="#3" y="6.513"></use><use xlink:href="#4" y="8.684"></use><use xlink:href="#5" y="10.855"></use><text font-size="1.67" x="0" y="14.696" class="g">■■</text><text font-size="1.67" x="35.06999999999999" y="14.696" class="e">4%</text><text font-size="1.67" x="38.07599999999999" y="14.696" class="e">|</text><text font-size="1.67" x="40.08" y="14.696" class="e">350ms</text><text font-size="1.67" x="46.09199999999999" y="14.696" class="e">|</text><text font-size="1.67" x="48.096" y="14.696" class="e">Read</text><text font-size="1.67" x="53.105999999999995" y="14.696" class="e">DEMO.txt</text></svg><svg x="1040"><use xlink:href="#a"></use><use xlink:href="#1" y="2.171"></use><use xlink:href="#2" y="4.342"></use><use xlink:href="#3" y="6.513"></use><use xlink:href="#4" y="8.684"></use><use xlink:href="#5" y="10.855"></use><text font-size="1.67" x="0" y="14.696" class="g">■■■</text><text font-size="1.67" x="35.06999999999999" y="14.696" class="e">6%</text><text font-size="1.67" x="38.07599999999999" y="14.696" class="e">|</text><text font-size="1.67" x="40.08" y="14.696" class="e">371ms</text><text font-size="1.67" x="46.09199999999999" y="14.696" class="e">|</text><text font-size="1.67" x="48.096" y="14.696" class="e">Split</text><text font-size="1.67" x="54.108" y="14.696" class="e">demo</text></svg><svg x="1120"><use xlink:href="#a"></use><use xlink:href="#1" y="2.171"></use><use xlink:href="#2" y="4.342"></use><use xlink:href="#3" y="6.513"></use><use xlink:href="#4" y="8.684"></use><use xlink:href="#5" y="10.855"></use><text font-size="1.67" x="0" y="14.696" class="g">■■■</text><text font-size="1.67" x="35.06999999999999" y="14.696" class="e">7%</text><text font-size="1.67" x="38.07599999999999" y="14.696" class="e">|</text><text font-size="1.67" x="40.08" y="14.696" class="e">433ms</text><text font-size="1.67" x="46.09199999999999" y="14.696" class="e">|</text><text font-size="1.67" x="48.096" y="14.696" class="e">Remove</text><text font-size="1.67" x="55.10999999999999" y="14.696" class="e">duplicates</text></svg><svg x="1200"><use xlink:href="#a"></use><use xlink:href="#1" y="2.171"></use><use xlink:href="#2" y="4.342"></use><use xlink:href="#3" y="6.513"></use><use xlink:href="#4" y="8.684"></use><use xlink:href="#5" y="10.855"></use><text font-size="1.67" x="0" y="14.696" class="g">■■■</text><text font-size="1.67" x="35.06999999999999" y="14.696" class="e">8%</text><text font-size="1.67" x="38.07599999999999" y="14.696" class="e">|</text><text font-size="1.67" x="40.08" y="14.696" class="e">464ms</text><text font-size="1.67" x="46.09199999999999" y="14.696" class="e">|</text><text font-size="1.67" x="48.096" y="14.696" class="e">Write</text><text font-size="1.67" x="54.108" y="14.696" class="e">demo.parquet</text></svg><svg x="1280"><use xlink:href="#a"></use><use xlink:href="#1" y="2.171"></use><use xlink:href="#2" y="4.342"></use><use xlink:href="#3" y="6.513"></use><use xlink:href="#4" y="8.684"></use><use xlink:href="#5" y="10.855"></use><text font-size="1.67" x="0" y="14.696" class="g">■■■■</text><text font-size="1.67" x="34.068" y="14.696" class="e">10%</text><text font-size="1.67" x="38.07599999999999" y="14.696" class="e">|</text><text font-size="1.67" x="40.08" y="14.696" class="e">548ms</text><text font-size="1.67" x="46.09199999999999" y="14.696" class="e">|</text><text font-size="1.67" x="48.096" y="14.696" class="e">Read</text><text font-size="1.67" x="53.105999999999995" y="14.696" class="e">DRUG.txt</text></svg><svg x="1360"><use xlink:href="#a"></use><use xlink:href="#1" y="2.171"></use><use xlink:href="#2" y="4.342"></use><use xlink:href="#3" y="6.513"></use><use xlink:href="#4" y="8.684"></use><use xlink:href="#5" y="10.855"></use><text font-size="1.67" x="0" y="14.696" class="g">■■■■■</text><text font-size="1.67" x="34.068" y="14.696" class="e">12%</text><text font-size="1.67" x="38.07599999999999" y="14.696" class="e">|</text><text font-size="1.67" x="40.08" y="14.696" class="e">575ms</text><text font-size="1.67" x="46.09199999999999" y="14.696" class="e">|</text><text font-size="1.67" x="48.096" y="14.696" class="e">Split</text><text font-size="1.67" x="54.108" y="14.696" class="e">drug</text></svg><svg x="1440"><use xlink:href="#a"></use><use xlink:href="#1" y="2.171"></use><use xlink:href="#2" y="4.342"></use><use xlink:href="#3" y="6.513"></use><use xlink:href="#4" y="8.684"></use><use xlink:href="#5" y="10.855"></use><text font-size="1.67" x="0" y="14.696" class="g">■■■■■</text><text font-size="1.67" x="34.068" y="14.696" class="e">13%</text><text font-size="1.67" x="38.07599999999999" y="14.696" class="e">|</text><text font-size="1.67" x="40.08" y="14.696" class="e">654ms</text><text font-size="1.67" x="46.09199999999999" y="14.696" class="e">|</text><text font-size="1.67" x="48.096" y="14.696" class="e">Remove</text><text font-size="1.67" x="55.10999999999999" y="14.696" class="e">duplicates</text></svg><svg x="1520"><use xlink:href="#a"></use><use xlink:href="#1" y="2.171"></use><use xlink:href="#2" y="4.342"></use><use xlink:href="#3" y="6.513"></use><use xlink:href="#4" y="8.684"></use><use xlink:href="#5" y="10.855"></use><text font-size="1.67" x="0" y="14.696" class="g">■■■■■</text><text font-size="1.67" x="34.068" y="14.696" class="e">14%</text><text font-size="1.67" x="38.07599999999999" y="14.696" class="e">|</text><text font-size="1.67" x="40.08" y="14.696" class="e">687ms</text><text font-size="1.67" x="46.09199999999999" y="14.696" class="e">|</text><text font-size="1.67" x="48.096" y="14.696" class="e">Write</text><text font-size="1.67" x="54.108" y="14.696" class="e">drug.parquet</text></svg><svg x="1600"><use xlink:href="#a"></use><use xlink:href="#1" y="2.171"></use><use xlink:href="#2" y="4.342"></use><use xlink:href="#3" y="6.513"></use><use xlink:href="#4" y="8.684"></use><use xlink:href="#5" y="10.855"></use><text font-size="1.67" x="0" y="14.696" class="g">■■■■■■</text><text font-size="1.67" x="34.068" y="14.696" class="e">16%</text><text font-size="1.67" x="38.07599999999999" y="14.696" class="e">|</text><text font-size="1.67" x="40.08" y="14.696" class="e">783ms</text><text font-size="1.67" x="46.09199999999999" y="14.696" class="e">|</text><text font-size="1.67" x="48.096" y="14.696" class="e">Read</text><text font-size="1.67" x="53.105999999999995" y="14.696" class="e">FOLLOWUP.txt</text></svg><svg x="1680"><use xlink:href="#a"></use><use xlink:href="#1" y="2.171"></use><use xlink:href="#2" y="4.342"></use><use xlink:href="#3" y="6.513"></use><use xlink:href="#4" y="8.684"></use><use xlink:href="#5" y="10.855"></use><text font-size="1.67" x="0" y="14.696" class="g">■■■■■■</text><text font-size="1.67" x="34.068" y="14.696" class="e">18%</text><text font-size="1.67" x="38.07599999999999" y="14.696" class="e">|</text><text font-size="1.67" x="40.08" y="14.696" class="e">803ms</text><text font-size="1.67" x="46.09199999999999" y="14.696" class="e">|</text><text font-size="1.67" x="48.096" y="14.696" class="e">Split</text><text font-size="1.67" x="54.108" y="14.696" class="e">followup</text></svg><svg x="1760"><use xlink:href="#a"></use><use xlink:href="#1" y="2.171"></use><use xlink:href="#2" y="4.342"></use><use xlink:href="#3" y="6.513"></use><use xlink:href="#4" y="8.684"></use><use xlink:href="#5" y="10.855"></use><text font-size="1.67" x="0" y="14.696" class="g">■■■■■■■</text><text font-size="1.67" x="34.068" y="14.696" class="e">19%</text><text font-size="1.67" x="38.07599999999999" y="14.696" class="e">|</text><text font-size="1.67" x="40.08" y="14.696" class="e">846ms</text><text font-size="1.67" x="46.09199999999999" y="14.696" class="e">|</text><text font-size="1.67" x="48.096" y="14.696" class="e">Remove</text><text font-size="1.67" x="55.10999999999999" y="14.696" class="e">duplicates</text></svg><svg x="1840"><use xlink:href="#a"></use><use xlink:href="#1" y="2.171"></use><use xlink:href="#2" y="4.342"></use><use xlink:href="#3" y="6.513"></use><use xlink:href="#4" y="8.684"></use><use xlink:href="#5" y="10.855"></use><text font-size="1.67" x="0" y="14.696" class="g">■■■■■■■</text><text font-size="1.67" x="34.068" y="14.696" class="e">20%</text><text font-size="1.67" x="38.07599999999999" y="14.696" class="e">|</text><text font-size="1.67" x="40.08" y="14.696" class="e">870ms</text><text font-size="1.67" x="46.09199999999999" y="14.696" class="e">|</text><text font-size="1.67" x="48.096" y="14.696" class="e">Write</text><text font-size="1.67" x="54.108" y="14.696" class="e">followup.parquet</text></svg><svg x="1920"><use xlink:href="#a"></use><use xlink:href="#1" y="2.171"></use><use xlink:href="#2" y="4.342"></use><use xlink:href="#3" y="6.513"></use><use xlink:href="#4" y="8.684"></use><use xlink:href="#5" y="10.855"></use><text font-size="1.67" x="0" y="14.696" class="g">■■■■■■■■</text><text font-size="1.67" x="34.068" y="14.696" class="e">22%</text><text font-size="1.67" x="38.07599999999999" y="14.696" class="e">|</text><text font-size="1.67" x="40.08" y="14.696" class="e">951ms</text><text font-size="1.67" x="46.09199999999999" y="14.696" class="e">|</text><text font-size="1.67" x="48.096" y="14.696" class="e">Read</text><text font-size="1.67" x="53.105999999999995" y="14.696" class="e">ADR.txt</text></svg><svg x="2000"><use xlink:href="#a"></use><use xlink:href="#1" y="2.171"></use><use xlink:href="#2" y="4.342"></use><use xlink:href="#3" y="6.513"></use><use xlink:href="#4" y="8.684"></use><use xlink:href="#5" y="10.855"></use><text font-size="1.67" x="0" y="14.696" class="g">■■■■■■■■</text><text font-size="1.67" x="34.068" y="14.696" class="e">24%</text><text font-size="1.67" x="38.07599999999999" y="14.696" class="e">|</text><text font-size="1.67" x="40.08" y="14.696" class="e">970ms</text><text font-size="1.67" x="46.09199999999999" y="14.696" class="e">|</text><text font-size="1.67" x="48.096" y="14.696" class="e">Split</text><text font-size="1.67" x="54.108" y="14.696" class="e">adr</text></svg><svg x="2080"><use xlink:href="#a"></use><use xlink:href="#1" y="2.171"></use><use xlink:href="#2" y="4.342"></use><use xlink:href="#3" y="6.513"></use><use xlink:href="#4" y="8.684"></use><use xlink:href="#5" y="10.855"></use><text font-size="1.67" x="0" y="14.696" class="g">■■■■■■■■■</text><text font-size="1.67" x="34.068" y="14.696" class="e">25%</text><text font-size="1.67" x="38.07599999999999" y="14.696" class="e">|</text><text font-size="1.67" x="40.08" y="14.696" class="e">1s</text><text font-size="1.67" x="43.086" y="14.696" class="e">|</text><text font-size="1.67" x="45.089999999999996" y="14.696" class="e">Remove</text><text font-size="1.67" x="52.104" y="14.696" class="e">duplicates</text></svg><svg x="2160"><use xlink:href="#a"></use><use xlink:href="#1" y="2.171"></use><use xlink:href="#2" y="4.342"></use><use xlink:href="#3" y="6.513"></use><use xlink:href="#4" y="8.684"></use><use xlink:href="#5" y="10.855"></use><text font-size="1.67" x="0" y="14.696" class="g">■■■■■■■■■</text><text font-size="1.67" x="34.068" y="14.696" class="e">26%</text><text font-size="1.67" x="38.07599999999999" y="14.696" class="e">|</text><text font-size="1.67" x="40.08" y="14.696" class="e">1s</text><text font-size="1.67" x="43.086" y="14.696" class="e">|</text><text font-size="1.67" x="45.089999999999996" y="14.696" class="e">Write</text><text font-size="1.67" x="51.102" y="14.696" class="e">adr.parquet</text></svg><svg x="2240"><use xlink:href="#a"></use><use xlink:href="#1" y="2.171"></use><use xlink:href="#2" y="4.342"></use><use xlink:href="#3" y="6.513"></use><use xlink:href="#4" y="8.684"></use><use xlink:href="#5" y="10.855"></use><text font-size="1.67" x="0" y="14.696" class="g">■■■■■■■■■</text><text font-size="1.67" x="34.068" y="14.696" class="e">27%</text><text font-size="1.67" x="38.07599999999999" y="14.696" class="e">|</text><text font-size="1.67" x="40.08" y="14.696" class="e">1.1s</text><text font-size="1.67" x="45.089999999999996" y="14.696" class="e">|</text><text font-size="1.67" x="47.093999999999994" y="14.696" class="e">Read</text><text font-size="1.67" x="52.104" y="14.696" class="e">OUT.txt</text></svg><svg x="2320"><use xlink:href="#a"></use><use xlink:href="#1" y="2.171"></use><use xlink:href="#2" y="4.342"></use><use xlink:href="#3" y="6.513"></use><use xlink:href="#4" y="8.684"></use><use xlink:href="#5" y="10.855"></use><text font-size="1.67" x="0" y="14.696" class="g">■■■■■■■■■</text><text font-size="1.67" x="34.068" y="14.696" class="e">28%</text><text font-size="1.67" x="38.07599999999999" y="14.696" class="e">|</text><text font-size="1.67" x="40.08" y="14.696" class="e">1.1s</text><text font-size="1.67" x="45.089999999999996" y="14.696" class="e">|</text><text font-size="1.67" x="47.093999999999994" y="14.696" class="e">Split</text><text font-size="1.67" x="53.105999999999995" y="14.696" class="e">out</text></svg><svg x="2400"><use xlink:href="#a"></use><use xlink:href="#1" y="2.171"></use><use xlink:href="#2" y="4.342"></use><use xlink:href="#3" y="6.513"></use><use xlink:href="#4" y="8.684"></use><use xlink:href="#5" y="10.855"></use><text font-size="1.67" x="0" y="14.696" class="g">■■■■■■■■■■</text><text font-size="1.67" x="34.068" y="14.696" class="e">29%</text><text font-size="1.67" x="38.07599999999999" y="14.696" class="e">|</text><text font-size="1.67" x="40.08" y="14.696" class="e">1.1s</text><text font-size="1.67" x="45.089999999999996" y="14.696" class="e">|</text><text font-size="1.67" x="47.093999999999994" y="14.696" class="e">Remove</text><text font-size="1.67" x="54.108" y="14.696" class="e">duplicates</text></svg><svg x="2480"><use xlink:href="#a"></use><use xlink:href="#1" y="2.171"></use><use xlink:href="#2" y="4.342"></use><use xlink:href="#3" y="6.513"></use><use xlink:href="#4" y="8.684"></use><use xlink:href="#5" y="10.855"></use><text font-size="1.67" x="0" y="14.696" class="g">■■■■■■■■■■</text><text font-size="1.67" x="34.068" y="14.696" class="e">30%</text><text font-size="1.67" x="38.07599999999999" y="14.696" class="e">|</text><text font-size="1.67" x="40.08" y="14.696" class="e">1.2s</text><text font-size="1.67" x="45.089999999999996" y="14.696" class="e">|</text><text font-size="1.67" x="47.093999999999994" y="14.696" class="e">Write</text><text font-size="1.67" x="53.105999999999995" y="14.696" class="e">out.parquet</text></svg><svg x="2560"><use xlink:href="#a"></use><use xlink:href="#1" y="2.171"></use><use xlink:href="#2" y="4.342"></use><use xlink:href="#3" y="6.513"></use><use xlink:href="#4" y="8.684"></use><use xlink:href="#5" y="10.855"></use><text font-size="1.67" x="0" y="14.696" class="g">■■■■■■■■■■</text><text font-size="1.67" x="34.068" y="14.696" class="e">31%</text><text font-size="1.67" x="38.07599999999999" y="14.696" class="e">|</text><text font-size="1.67" x="40.08" y="14.696" class="e">1.3s</text><text font-size="1.67" x="45.089999999999996" y="14.696" class="e">|</text><text font-size="1.67" x="47.093999999999994" y="14.696" class="e">Read</text><text font-size="1.67" x="52.104" y="14.696" class="e">SRCE.txt</text></svg><svg x="2640"><use xlink:href="#a"></use><use xlink:href="#1" y="2.171"></use><use xlink:href="#2" y="4.342"></use><use xlink:href="#3" y="6.513"></use><use xlink:href="#4" y="8.684"></use><use xlink:href="#5" y="10.855"></use><text font-size="1.67" x="0" y="14.696" class="g">■■■■■■■■■■■</text><text font-size="1.67" x="34.068" y="14.696" class="e">32%</text><text font-size="1.67" x="38.07599999999999" y="14.696" class="e">|</text><text font-size="1.67" x="40.08" y="14.696" class="e">1.3s</text><text font-size="1.67" x="45.089999999999996" y="14.696" class="e">|</text><text font-size="1.67" x="47.093999999999994" y="14.696" class="e">Split</text><text font-size="1.67" x="53.105999999999995" y="14.696" class="e">srce</text></svg><svg x="2720"><use xlink:href="#a"></use><use xlink:href="#1" y="2.171"></use><use xlink:href="#2" y="4.342"></use><use xlink:href="#3" y="6.513"></use><use xlink:href="#4" y="8.684"></use><use xlink:href="#5" y="10.855"></use><text font-size="1.67" x="0" y="14.696" class="g">■■■■■■■■■■■</text><text font-size="1.67" x="34.068" y="14.696" class="e">33%</text><text font-size="1.67" x="38.07599999999999" y="14.696" class="e">|</text><text font-size="1.67" x="40.08" y="14.696" class="e">1.3s</text><text font-size="1.67" x="45.089999999999996" y="14.696" class="e">|</text><text font-size="1.67" x="47.093999999999994" y="14.696" class="e">Remove</text><text font-size="1.67" x="54.108" y="14.696" class="e">duplicates</text></svg><svg x="2800"><use xlink:href="#a"></use><use xlink:href="#1" y="2.171"></use><use xlink:href="#2" y="4.342"></use><use xlink:href="#3" y="6.513"></use><use xlink:href="#4" y="8.684"></use><use xlink:href="#5" y="10.855"></use><text font-size="1.67" x="0" y="14.696" class="g">■■■■■■■■■■■</text><text font-size="1.67" x="34.068" y="14.696" class="e">34%</text><text font-size="1.67" x="38.07599999999999" y="14.696" class="e">|</text><text font-size="1.67" x="40.08" y="14.696" class="e">1.3s</text><text font-size="1.67" x="45.089999999999996" y="14.696" class="e">|</text><text font-size="1.67" x="47.093999999999994" y="14.696" class="e">Write</text><text font-size="1.67" x="53.105999999999995" y="14.696" class="e">srce.parquet</text></svg><svg x="2880"><use xlink:href="#a"></use><use xlink:href="#1" y="2.171"></use><use xlink:href="#2" y="4.342"></use><use xlink:href="#3" y="6.513"></use><use xlink:href="#4" y="8.684"></use><use xlink:href="#5" y="10.855"></use><text font-size="1.67" x="0" y="14.696" class="g">■■■■■■■■■■■</text><text font-size="1.67" x="34.068" y="14.696" class="e">35%</text><text font-size="1.67" x="38.07599999999999" y="14.696" class="e">|</text><text font-size="1.67" x="40.08" y="14.696" class="e">1.4s</text><text font-size="1.67" x="45.089999999999996" y="14.696" class="e">|</text><text font-size="1.67" x="47.093999999999994" y="14.696" class="e">Read</text><text font-size="1.67" x="52.104" y="14.696" class="e">LINK.txt</text></svg><svg x="2960"><use xlink:href="#a"></use><use xlink:href="#1" y="2.171"></use><use xlink:href="#2" y="4.342"></use><use xlink:href="#3" y="6.513"></use><use xlink:href="#4" y="8.684"></use><use xlink:href="#5" y="10.855"></use><text font-size="1.67" x="0" y="14.696" class="g">■■■■■■■■■■■■</text><text font-size="1.67" x="34.068" y="14.696" class="e">36%</text><text font-size="1.67" x="38.07599999999999" y="14.696" class="e">|</text><text font-size="1.67" x="40.08" y="14.696" class="e">1.4s</text><text font-size="1.67" x="45.089999999999996" y="14.696" class="e">|</text><text font-size="1.67" x="47.093999999999994" y="14.696" class="e">Split</text><text font-size="1.67" x="53.105999999999995" y="14.696" class="e">link</text><text font-size="1.67" x="58.116" y="14.696" class="e">(longest</text><text font-size="1.67" x="67.134" y="14.696" class="e">step)</text></svg><svg x="3040"><use xlink:href="#a"></use><use xlink:href="#1" y="2.171"></use><use xlink:href="#2" y="4.342"></use><use xlink:href="#3" y="6.513"></use><use xlink:href="#4" y="8.684"></use><use xlink:href="#5" y="10.855"></use><text font-size="1.67" x="0" y="14.696" class="g">■■■■■■■■■■■■■■■■■■■■■■■</text><text font-size="1.67" x="34.068" y="14.696" class="e">72%</text><text font-size="1.67" x="38.07599999999999" y="14.696" class="e">|</text><text font-size="1.67" x="40.08" y="14.696" class="e">1.6s</text><text font-size="1.67" x="45.089999999999996" y="14.696" class="e">|</text><text font-size="1.67" x="47.093999999999994" y="14.696" class="e">Remove</text><text font-size="1.67" x="54.108" y="14.696" class="e">duplicates</text></svg><svg x="3120"><use xlink:href="#a"></use><use xlink:href="#1" y="2.171"></use><use xlink:href="#2" y="4.342"></use><use xlink:href="#3" y="6.513"></use><use xlink:href="#4" y="8.684"></use><use xlink:href="#5" y="10.855"></use><text font-size="1.67" x="0" y="14.696" class="g">■■■■■■■■■■■■■■■■■■■■■■■</text><text font-size="1.67" x="34.068" y="14.696" class="e">73%</text><text font-size="1.67" x="38.07599999999999" y="14.696" class="e">|</text><text font-size="1.67" x="40.08" y="14.696" class="e">1.6s</text><text font-size="1.67" x="45.089999999999996" y="14.696" class="e">|</text><text font-size="1.67" x="47.093999999999994" y="14.696" class="e">Write</text><text font-size="1.67" x="53.105999999999995" y="14.696" class="e">link.parquet</text></svg><svg x="3200"><use xlink:href="#a"></use><use xlink:href="#1" y="2.171"></use><use xlink:href="#2" y="4.342"></use><use xlink:href="#3" y="6.513"></use><use xlink:href="#4" y="8.684"></use><use xlink:href="#5" y="10.855"></use><text font-size="1.67" x="0" y="14.696" class="g">■■■■■■■■■■■■■■■■■■■■■■■</text><text font-size="1.67" x="34.068" y="14.696" class="e">74%</text><text font-size="1.67" x="38.07599999999999" y="14.696" class="e">|</text><text font-size="1.67" x="40.08" y="14.696" class="e">1.7s</text><text font-size="1.67" x="45.089999999999996" y="14.696" class="e">|</text><text font-size="1.67" x="47.093999999999994" y="14.696" class="e">Read</text><text font-size="1.67" x="52.104" y="14.696" class="e">IND.txt</text></svg><svg x="3280"><use xlink:href="#a"></use><use xlink:href="#1" y="2.171"></use><use xlink:href="#2" y="4.342"></use><use xlink:href="#3" y="6.513"></use><use xlink:href="#4" y="8.684"></use><use xlink:href="#5" y="10.855"></use><text font-size="1.67" x="0" y="14.696" class="g">■■■■■■■■■■■■■■■■■■■■■■■</text><text font-size="1.67" x="34.068" y="14.696" class="e">75%</text><text font-size="1.67" x="38.07599999999999" y="14.696" class="e">|</text><text font-size="1.67" x="40.08" y="14.696" class="e">1.7s</text><text font-size="1.67" x="45.089999999999996" y="14.696" class="e">|</text><text font-size="1.67" x="47.093999999999994" y="14.696" class="e">Split</text><text font-size="1.67" x="53.105999999999995" y="14.696" class="e">ind</text><text font-size="1.67" x="57.114" y="14.696" class="e">(2nd</text><text font-size="1.67" x="62.123999999999995" y="14.696" class="e">longest</text><text font-size="1.67" x="70.13999999999999" y="14.696" class="e">step)</text></svg><svg x="3360"><use xlink:href="#a"></use><use xlink:href="#1" y="2.171"></use><use xlink:href="#2" y="4.342"></use><use xlink:href="#3" y="6.513"></use><use xlink:href="#4" y="8.684"></use><use xlink:href="#5" y="10.855"></use><text font-size="1.67" x="0" y="14.696" class="g">■■■■■■■■■■■■■■■■■■■■■■■■</text><text font-size="1.67" x="34.068" y="14.696" class="e">76%</text><text font-size="1.67" x="38.07599999999999" y="14.696" class="e">|</text><text font-size="1.67" x="40.08" y="14.696" class="e">1.8s</text><text font-size="1.67" x="45.089999999999996" y="14.696" class="e">|</text><text font-size="1.67" x="47.093999999999994" y="14.696" class="e">Remove</text><text font-size="1.67" x="54.108" y="14.696" class="e">duplicates</text></svg><svg x="3440"><use xlink:href="#a"></use><use xlink:href="#1" y="2.171"></use><use xlink:href="#2" y="4.342"></use><use xlink:href="#3" y="6.513"></use><use xlink:href="#4" y="8.684"></use><use xlink:href="#5" y="10.855"></use><text font-size="1.67" x="0" y="14.696" class="g">■■■■■■■■■■■■■■■■■■■■■■■■■■■■■■</text><text font-size="1.67" x="34.068" y="14.696" class="e">98%</text><text font-size="1.67" x="38.07599999999999" y="14.696" class="e">|</text><text font-size="1.67" x="40.08" y="14.696" class="e">1.8s</text><text font-size="1.67" x="45.089999999999996" y="14.696" class="e">|</text><text font-size="1.67" x="47.093999999999994" y="14.696" class="e">Write</text><text font-size="1.67" x="53.105999999999995" y="14.696" class="e">ind.parquet</text></svg><svg x="3520"><use xlink:href="#a"></use><use xlink:href="#1" y="2.171"></use><use xlink:href="#2" y="4.342"></use><use xlink:href="#3" y="6.513"></use><use xlink:href="#4" y="8.684"></use><use xlink:href="#5" y="10.855"></use><text font-size="1.67" x="0" y="14.696" class="g">■■■■■■■■■■■■■■■■■■■■■■■■■■■■■■■</text><text font-size="1.67" x="34.068" y="14.696" class="e">99%</text><text font-size="1.67" x="38.07599999999999" y="14.696" class="e">|</text><text font-size="1.67" x="40.08" y="14.696" class="e">1.9s</text><text font-size="1.67" x="45.089999999999996" y="14.696" class="e">|</text><text font-size="1.67" x="47.093999999999994" y="14.696" class="e">Process</text><text font-size="1.67" x="55.10999999999999" y="14.696" class="e">Subsidiary</text><text font-size="1.67" x="66.13199999999999" y="14.696" class="e">files</text></svg><svg x="3600"><use xlink:href="#a"></use><use xlink:href="#1" y="2.171"></use><use xlink:href="#2" y="4.342"></use><use xlink:href="#3" y="6.513"></use><use xlink:href="#4" y="8.684"></use><use xlink:href="#5" y="10.855"></use><use xlink:href="#6" y="13.026"></use></svg><svg x="3680"><use xlink:href="#a"></use><use xlink:href="#1" y="2.171"></use><use xlink:href="#2" y="4.342"></use><use xlink:href="#3" y="6.513"></use><use xlink:href="#4" y="8.684"></use><use xlink:href="#5" y="10.855"></use><use xlink:href="#6" y="13.026"></use></svg><svg x="3760"><use xlink:href="#a"></use><use xlink:href="#1" y="2.171"></use><use xlink:href="#2" y="4.342"></use><use xlink:href="#3" y="6.513"></use><use xlink:href="#4" y="8.684"></use><use xlink:href="#5" y="10.855"></use><use xlink:href="#6" y="13.026"></use></svg><svg x="3840"><use xlink:href="#a"></use><use xlink:href="#1" y="2.171"></use><use xlink:href="#2" y="4.342"></use><use xlink:href="#3" y="6.513"></use><use xlink:href="#4" y="8.684"></use><use xlink:href="#5" y="10.855"></use><use xlink:href="#6" y="13.026"></use></svg><svg x="3920"><use xlink:href="#a"></use><use xlink:href="#1" y="2.171"></use><use xlink:href="#2" y="4.342"></use><use xlink:href="#3" y="6.513"></use><use xlink:href="#4" y="8.684"></use><use xlink:href="#5" y="10.855"></use><use xlink:href="#6" y="13.026"></use></svg></svg></g></g></svg></svg>